<?xml version="1.0" encoding="UTF-8" standalone="no"?>
<!DOCTYPE svg PUBLIC "-//W3C//DTD SVG 1.1//EN" "http://www.w3.org/Graphics/SVG/1.1/DTD/svg11.dtd">
<svg width="100%" height="100%" viewBox="0 0 4002 3921" version="1.1" xmlns="http://www.w3.org/2000/svg" xmlns:xlink="http://www.w3.org/1999/xlink" xml:space="preserve" xmlns:serif="http://www.serif.com/" style="fill-rule:evenodd;clip-rule:evenodd;stroke-linejoin:round;stroke-miterlimit:2;">
    <g id="_5fbfbe31-847b-465f-b758-875617527745" serif:id="5fbfbe31-847b-465f-b758-875617527745">
    </g>
    <g id="_398c688b-d4df-46ad-86ac-fbf0cb339126" serif:id="398c688b-d4df-46ad-86ac-fbf0cb339126" transform="matrix(6.6,0,0,6.6,-367.47,-69.5599)">
        <path d="M510.7,212.5C490.9,196.2 472.5,181.1 459.5,165.7C468.6,166.9 477.7,167.6 486.7,167.6C492.9,167.6 498.6,167.2 503.8,166.6C512.2,187.4 534.1,195.3 553.5,195.3C594.1,195.3 636.1,161.3 636.1,104.4C636.1,79.2 626.5,56.3 609,39.7C589,20.7 559.2,10.6 523,10.6L520.1,10.6C411.8,11.8 376.7,90.2 376.7,128.4L376.7,128.8L368.3,126.1C320,110.6 269.9,94.5 213.9,94.5C162.5,94.5 120.7,108.3 92.9,134.5C69,157 55.8,188.4 55.8,222.8C55.8,281.3 96,344.5 160.8,344.5C204.2,344.5 223.6,316.6 224.3,315.4C226.7,311.8 225.8,307 222.2,304.6C218.7,302.2 213.8,303.1 211.4,306.6C210.7,307.5 195.5,328.9 160.7,328.9C117.7,328.9 71.3,288.3 71.3,222.8C71.3,192.7 82.7,165.4 103.5,145.9C128.4,122.5 166.5,110.2 213.8,110.2C267.4,110.2 316.2,125.9 363.4,141C368.2,142.6 372.9,144 377.6,145.6C384.2,201.6 422.8,240.9 460.1,279C498.1,317.8 534,354.4 534,405.9C534,440.3 525.6,466.4 512.2,485.7C514.3,472.2 515.6,458.1 515.6,443.8C515.6,389.6 483.6,333 436,302.9C396.9,278.1 353.9,274.6 315.1,293C265.5,316.4 240.9,370.6 253.7,427.8C266.1,482.7 317,547 419.8,547L419.8,547.5L422.1,547.5C429.6,547.5 453.4,547 482.2,540.9C471.7,571.8 460.3,592.6 460.1,593C458,596.8 459.4,601.5 463.1,603.6C464.3,604.3 465.6,604.6 466.8,604.6C469.6,604.6 472.2,603.2 473.7,600.6C474.7,598.8 488.6,573.4 500.1,536.6C528.5,528.7 559.3,515.1 583.1,491.8C609.9,465.6 623.5,431.2 623.5,389.7C623.7,305.3 563.7,256 510.7,212.5ZM515.8,146.8C515.8,128 528.5,106.9 545.4,106.9C549.8,106.9 549.9,114 549.9,114.8C549.9,122.7 545,131.4 536.9,137.9C532.4,141.5 525.7,145.5 515.9,148.3C515.8,147.8 515.8,147.3 515.8,146.8ZM520.1,26.2L522.6,26.2C554.9,26.2 581.1,34.8 598.2,51C612.6,64.6 620.5,83.5 620.5,104.4C620.5,151.5 586.5,179.7 553.6,179.7C533.9,179.7 524.3,171.9 519.9,163.5C532.4,160 541,154.8 546.8,150.2C558.6,140.7 565.7,127.5 565.7,114.9C565.7,101.3 557.3,91.3 545.6,91.3C533,91.3 521.2,97.8 512.5,109.7C504.8,120.1 500.4,133.7 500.4,146.8C500.4,148.4 500.5,149.8 500.6,151.3C496.4,151.8 491.9,152 486.9,152C473.9,152 460.7,150.5 447.2,147.9C442.7,139.5 440.1,130.9 440.1,121.8C440.1,89.5 448.7,64.7 465.7,48.3C485.8,28.8 512.4,26.5 520.1,26.2ZM269,424.3C257.6,373.6 278.3,327.6 321.8,307C336,300.3 350.9,297 365.9,297C386.6,297 407.7,303.4 427.7,316C470.9,343.4 500,394.7 500,443.7C500,465.8 496.7,487.6 492,507.4C470.8,524.3 444.5,531.4 420,531.4C326.3,531.4 280.1,473.7 269,424.3Z" style="fill:url(#_Linear1);fill-rule:nonzero;"/>
    </g>
    <defs>
        <linearGradient id="_Linear1" x1="0" y1="0" x2="1" y2="0" gradientUnits="userSpaceOnUse" gradientTransform="matrix(525.93,251.035,-251.035,525.93,55.8,10.6)"><stop offset="0" style="stop-color:rgb(235,76,0);stop-opacity:1"/><stop offset="1" style="stop-color:rgb(242,169,0);stop-opacity:1"/></linearGradient>
    </defs>
</svg>
